<svg width="24" height="32" viewBox="0 0 24 32" fill="none" xmlns="http://www.w3.org/2000/svg">
<path d="M12 0.0996094C11.3635 0.0996094 10.753 0.352466 10.3029 0.802553C9.85286 1.25264 9.6 1.86309 9.6 2.49961C9.6 2.60281 9.624 2.70121 9.6372 2.79961C5.4888 3.85921 2.4 7.62721 2.4 12.0996V22.8996C2.4 23.5788 1.8792 24.0996 1.2 24.0996H0V26.4996H8.6256C8.48146 26.8835 8.40513 27.2896 8.4 27.6996C8.4 29.6736 10.026 31.2996 12 31.2996C13.974 31.2996 15.6 29.6736 15.6 27.6996C15.5949 27.2896 15.5185 26.8835 15.3744 26.4996H24V24.0996H22.8C22.1208 24.0996 21.6 23.5788 21.6 22.8996V12.4368C21.6 7.92721 18.5856 3.90481 14.3628 2.79961C14.376 2.70121 14.4 2.60281 14.4 2.49961C14.4 1.86309 14.1471 1.25264 13.6971 0.802553C13.247 0.352466 12.6365 0.0996094 12 0.0996094V0.0996094ZM11.4744 4.89961C11.6484 4.88521 11.8224 4.89961 12 4.89961H12.2256C16.1436 5.01721 19.2 8.45161 19.2 12.4368V22.8996C19.2 23.322 19.2888 23.7204 19.4256 24.0996H4.5756C4.71933 23.7156 4.79526 23.3096 4.8 22.8996V12.0996C4.79658 10.2779 5.48322 8.52257 6.72178 7.18672C7.96033 5.85087 9.65886 5.03369 11.4756 4.89961H11.4744ZM12 26.4996C12.6756 26.4996 13.2 27.0252 13.2 27.6996C13.2 28.3752 12.6744 28.8996 12 28.8996C11.3244 28.8996 10.8 28.374 10.8 27.6996C10.8 27.024 11.3256 26.4996 12 26.4996Z" fill="#333333"/>
</svg>
