<svg width="23" height="28" viewBox="0 0 23 28" fill="none" xmlns="http://www.w3.org/2000/svg">
<path d="M11.3438 0.679688C10.0837 0.679688 9.19375 1.56969 8.75375 2.67969H0.34375V27.6797H22.3438V2.67969H13.9338C13.4938 1.56969 12.6038 0.679688 11.3438 0.679688ZM11.3438 2.67969C11.8938 2.67969 12.3438 3.12969 12.3438 3.67969V4.67969H15.3438V6.67969H7.34375V4.67969H10.3438V3.67969C10.3438 3.12969 10.7937 2.67969 11.3438 2.67969ZM2.34375 4.67969H5.34375V8.67969H17.3438V4.67969H20.3438V25.6797H2.34375V4.67969ZM4.34375 11.6797V13.6797H6.34375V11.6797H4.34375ZM8.34375 11.6797V13.6797H18.3438V11.6797H8.34375ZM4.34375 15.6797V17.6797H6.34375V15.6797H4.34375ZM8.34375 15.6797V17.6797H18.3438V15.6797H8.34375ZM4.34375 19.6797V21.6797H6.34375V19.6797H4.34375ZM8.34375 19.6797V21.6797H18.3438V19.6797H8.34375Z" fill="white"/>
</svg>
