<svg width="28" height="28" viewBox="0 0 28 28" fill="none" xmlns="http://www.w3.org/2000/svg">
<path d="M15.9652 7.23683L15.0009 2.60826H12.6866L11.7223 7.23683L10.3723 7.8154L6.51518 5.30826L4.77946 6.85112L7.28661 10.7083L6.90089 12.0583L2.27232 13.0225V15.3368L6.90089 16.3011L7.47946 17.844L4.97232 21.7011L6.51518 23.244L10.3723 20.7368L11.9152 21.3154L12.6866 25.7511H15.0009L15.9652 21.1225L17.508 20.544L21.3652 23.0511L22.908 21.5083L20.4009 17.6511L20.9795 16.1083L25.4152 15.3368V13.0225L20.7866 12.0583L20.208 10.5154L22.7152 6.65826L21.1723 5.1154L17.3152 7.62254L15.9652 7.23683ZM16.5437 0.679688L17.508 5.30826L21.558 2.80112L25.4152 6.65826L22.7152 10.7083L27.3438 11.4797V16.8797L22.7152 17.844L25.4152 21.894L21.558 25.7511L17.508 23.0511L16.5437 27.6797H11.1438L10.1795 23.0511L6.12946 25.5583L2.27232 21.7011L4.97232 17.6511L0.34375 16.8797V11.4797L4.97232 10.5154L2.46518 6.4654L6.32232 2.60826L10.3723 5.30826L11.1438 0.679688H16.5437ZM17.7009 14.1797C17.7009 16.3011 15.9652 18.0368 13.8438 18.0368C11.7223 18.0368 9.98661 16.3011 9.98661 14.1797C9.98661 12.0583 11.7223 10.3225 13.8438 10.3225C15.9652 10.3225 17.7009 12.0583 17.7009 14.1797ZM13.8438 16.1083C15.0009 16.1083 15.7723 15.3368 15.7723 14.1797C15.7723 13.0225 15.0009 12.2511 13.8438 12.2511C12.6866 12.2511 11.9152 13.0225 11.9152 14.1797C11.9152 15.3368 12.6866 16.1083 13.8438 16.1083Z" fill="white"/>
</svg>
