<svg width="25" height="21" viewBox="0 0 25 21" fill="none" xmlns="http://www.w3.org/2000/svg">
<path d="M7.18164 0.415039C3.88164 0.415039 1.18164 3.11504 1.18164 6.41504V6.66504L0.0566406 8.16504C0.39558 8.41746 0.776426 8.60805 1.18164 8.72804V11.196C0.571641 11.747 0.181641 12.536 0.181641 13.415C0.181641 14.294 0.571641 15.083 1.18164 15.634V18.415C1.18164 19.509 2.08764 20.415 3.18164 20.415H21.1816C22.2756 20.415 23.1816 19.509 23.1816 18.415V15.634C23.7916 15.083 24.1816 14.294 24.1816 13.415C24.1816 12.536 23.7916 11.747 23.1816 11.196V8.72704C23.5796 8.60704 23.9516 8.43104 24.3066 8.16504L23.1816 6.63404V6.41504C23.1816 3.11504 20.4816 0.415039 17.1816 0.415039H7.18164ZM7.18164 2.41504H8.18164C8.18164 2.96504 8.63164 3.41504 9.18164 3.41504C9.73164 3.41504 10.1816 2.96504 10.1816 2.41504H17.1816C19.4006 2.41504 21.1816 4.19604 21.1816 6.41504V6.91504C20.9204 6.83678 20.6764 6.70951 20.4626 6.54004L19.9316 6.16504L19.3376 6.50904L18.5876 6.94604C18.2482 7.15116 17.8592 7.25959 17.4626 7.25959C17.0661 7.25959 16.677 7.15116 16.3376 6.94604L15.5876 6.50904L15.1196 6.22804L14.6196 6.44604L13.1816 7.19604C12.8758 7.34823 12.5388 7.42744 12.1971 7.42744C11.8555 7.42744 11.5185 7.34823 11.2126 7.19604L9.74364 6.44604L9.24364 6.22704L8.77564 6.50904L8.02564 6.94604C7.32564 7.36404 6.47464 7.36404 5.77564 6.94604L5.02564 6.50904L4.43164 6.16504L3.90064 6.54004C3.68645 6.70877 3.44259 6.83595 3.18164 6.91504V6.41504C3.18164 4.19604 4.96264 2.41504 7.18164 2.41504ZM7.18164 3.41504C6.63164 3.41504 6.18164 3.86504 6.18164 4.41504C6.18164 4.96504 6.63164 5.41504 7.18164 5.41504C7.73164 5.41504 8.18164 4.96504 8.18164 4.41504C8.18164 3.86504 7.73164 3.41504 7.18164 3.41504ZM11.1816 3.41504C10.6316 3.41504 10.1816 3.86504 10.1816 4.41504C10.1816 4.96504 10.6316 5.41504 11.1816 5.41504C11.7316 5.41504 12.1816 4.96504 12.1816 4.41504C12.1816 3.86504 11.7316 3.41504 11.1816 3.41504ZM4.33764 8.41504L4.74364 8.66504C5.39497 9.05615 6.1404 9.26277 6.90014 9.26277C7.65988 9.26277 8.40531 9.05615 9.05664 8.66504L9.33764 8.47704L10.3066 8.97704C11.4866 9.56704 12.8766 9.56704 14.0566 8.97704L15.0256 8.47704L15.3066 8.66504C15.958 9.05615 16.7034 9.26277 17.4631 9.26277C18.2229 9.26277 18.9683 9.05615 19.6196 8.66504L20.0256 8.41504C20.4006 8.59504 20.7836 8.70804 21.1816 8.79004V10.415H3.18164V8.79004C3.58094 8.71311 3.96922 8.58716 4.33764 8.41504V8.41504ZM3.18164 12.415H21.1816C21.7476 12.415 22.1816 12.849 22.1816 13.415C22.1816 13.981 21.7476 14.415 21.1816 14.415H3.18164C2.61564 14.415 2.18164 13.981 2.18164 13.415C2.18164 12.849 2.61564 12.415 3.18164 12.415ZM3.18164 16.415H21.1816V18.415H3.18164V16.415Z" fill="white"/>
</svg>
