<svg width="25" height="25" viewBox="0 0 25 25" fill="none" xmlns="http://www.w3.org/2000/svg">
<path d="M12.3438 0.179706C10.3654 0.17624 8.41692 0.662403 6.67208 1.59485C4.92725 2.52729 3.44027 3.87703 2.34375 5.52371V2.17971H0.34375V9.17971H7.34375V7.17971H3.71875C5.44575 4.19971 8.64075 2.17971 12.3438 2.17971C17.8787 2.17971 22.3438 6.64471 22.3438 12.1797C22.3438 17.7147 17.8787 22.1797 12.3438 22.1797C6.80875 22.1797 2.34375 17.7147 2.34375 12.1797H0.34375C0.34375 18.7967 5.72675 24.1797 12.3438 24.1797C18.9608 24.1797 24.3438 18.7967 24.3438 12.1797C24.3438 5.56271 18.9608 0.179706 12.3438 0.179706ZM11.3438 4.17971V13.1797H18.3438V11.1797H13.3438V4.17971H11.3438Z" fill="white"/>
</svg>
