<svg width="27" height="21" viewBox="0 0 27 21" fill="none" xmlns="http://www.w3.org/2000/svg">
<path d="M0.34375 0.179688V20.1797H26.3438V0.179688H0.34375ZM2.34375 2.17969H24.3438V18.1797H20.9377C20.8598 18.0427 20.8948 17.8557 20.7808 17.7417C20.4037 17.3637 19.8668 17.1797 19.3438 17.1797C18.8207 17.1797 18.2847 17.3637 17.9058 17.7427C17.7927 17.8557 17.8277 18.0427 17.7498 18.1797H8.93775C8.85975 18.0427 8.89475 17.8557 8.78175 17.7417C8.40175 17.3637 7.86675 17.1797 7.34375 17.1797C6.82075 17.1797 6.28475 17.3637 5.90575 17.7427C5.79275 17.8557 5.82775 18.0427 5.74975 18.1797H2.34375V2.17969ZM9.34375 4.17969C7.14375 4.17969 5.34375 5.97969 5.34375 8.17969C5.34375 9.29269 5.82075 10.2967 6.56275 11.0237C5.88238 11.4833 5.32459 12.1022 4.93786 12.8265C4.55114 13.5508 4.34719 14.3586 4.34375 15.1797H6.34375C6.34375 14.384 6.65982 13.621 7.22243 13.0584C7.78504 12.4958 8.5481 12.1797 9.34375 12.1797C10.1394 12.1797 10.9025 12.4958 11.4651 13.0584C12.0277 13.621 12.3438 14.384 12.3438 15.1797H14.3438C14.3403 14.3586 14.1364 13.5508 13.7496 12.8265C13.3629 12.1022 12.8051 11.4833 12.1248 11.0237C12.8667 10.2967 13.3438 9.29369 13.3438 8.17969C13.3438 5.97969 11.5437 4.17969 9.34375 4.17969ZM9.34375 6.17969C10.4607 6.17969 11.3438 7.06269 11.3438 8.17969C11.3438 9.29669 10.4607 10.1797 9.34375 10.1797C8.22675 10.1797 7.34375 9.29669 7.34375 8.17969C7.34375 7.06269 8.22675 6.17969 9.34375 6.17969ZM16.3438 7.17969V9.17969H22.3438V7.17969H16.3438ZM16.3438 11.1797V13.1797H22.3438V11.1797H16.3438Z" fill="white"/>
</svg>
