<svg width="31" height="28" viewBox="0 0 31 28" fill="none" xmlns="http://www.w3.org/2000/svg">
<path d="M3.37355 0.563477L1.93455 2.00248L8.15455 8.18848L19.2485 19.2825L21.1545 21.2205L27.9355 28.0005L29.3735 26.5635L23.1545 20.3455C27.3885 18.2475 30.2285 15.1345 30.4045 14.9385L30.9985 14.2825L30.4045 13.6265C30.1345 13.3255 23.7405 6.28248 15.6545 6.28248C13.6975 6.28248 11.8495 6.71248 10.1545 7.34548L3.37355 0.563477ZM15.6545 8.28248C17.8065 8.28248 19.8425 8.88748 21.6545 9.72048C22.3048 10.7951 22.6504 12.0264 22.6545 13.2825C22.654 15.0312 21.9957 16.7157 20.8105 18.0015L17.9675 15.1575C18.3845 14.6455 18.6545 13.9975 18.6545 13.2825C18.6545 12.4868 18.3385 11.7238 17.7759 11.1612C17.2133 10.5985 16.4502 10.2825 15.6545 10.2825C14.9395 10.2825 14.2915 10.5525 13.7795 10.9705L11.7485 8.93848C12.9905 8.55548 14.2915 8.28248 15.6545 8.28248ZM6.34155 9.18848C3.13455 11.1615 1.05255 13.4585 0.904547 13.6265L0.310547 14.2825L0.904547 14.9385C1.16255 15.2285 7.08455 21.7085 14.7175 22.2205C15.0255 22.2505 15.3375 22.2825 15.6545 22.2825C15.9681 22.2777 16.2812 22.2566 16.5925 22.2195C17.4024 22.1698 18.207 22.0551 18.9985 21.8765L17.2165 20.0945C16.7048 20.2165 16.1807 20.2796 15.6545 20.2825C11.7945 20.2825 8.65455 17.1425 8.65455 13.2825C8.65455 12.7515 8.72455 12.2325 8.84255 11.7195L6.34155 9.18848ZM6.90455 11.2195C6.74114 11.8951 6.65724 12.5874 6.65455 13.2825C6.65045 14.9505 7.11623 16.5859 7.99855 18.0015C6.20964 16.9639 4.55178 15.7153 3.06055 14.2825C4.24272 13.1429 5.52976 12.1173 6.90455 11.2195ZM24.4045 11.2195C25.7786 12.1184 27.0655 13.1438 28.2485 14.2825C27.3495 15.1495 25.5725 16.7205 23.2795 18.0325C24.1734 16.609 24.6498 14.9633 24.6545 13.2825C24.6545 12.5825 24.5645 11.8925 24.4045 11.2195Z" fill="#333333"/>
</svg>
