<svg width="25" height="25" viewBox="0 0 25 25" fill="none" xmlns="http://www.w3.org/2000/svg">
<path d="M12.8438 0.179688C6.22675 0.179688 0.84375 5.56269 0.84375 12.1797C0.84375 18.7967 6.22675 24.1797 12.8438 24.1797C19.4608 24.1797 24.8438 18.7967 24.8438 12.1797C24.8438 5.56269 19.4608 0.179688 12.8438 0.179688ZM12.8438 2.17969C18.3787 2.17969 22.8438 6.64469 22.8438 12.1797C22.8438 17.7147 18.3787 22.1797 12.8438 22.1797C7.30875 22.1797 2.84375 17.7147 2.84375 12.1797C2.84375 6.64469 7.30875 2.17969 12.8438 2.17969ZM12.8438 6.17969C10.6438 6.17969 8.84375 7.97969 8.84375 10.1797H10.8438C10.8438 9.06269 11.7268 8.17969 12.8438 8.17969C13.9607 8.17969 14.8438 9.06269 14.8438 10.1797C14.8435 10.5534 14.7256 10.9175 14.5068 11.2205C14.288 11.5235 13.9794 11.7499 13.6248 11.8677L13.2188 11.9917C12.8191 12.1264 12.4715 12.3828 12.2249 12.7249C11.9784 13.0671 11.8451 13.4779 11.8438 13.8997V15.1797H13.8438V13.8987L14.2498 13.7737C15.0032 13.5204 15.6585 13.0377 16.1237 12.3931C16.5889 11.7486 16.8407 10.9746 16.8438 10.1797C16.8438 7.97969 15.0437 6.17969 12.8438 6.17969ZM11.8438 16.1797V18.1797H13.8438V16.1797H11.8438Z" fill="white"/>
</svg>
