<svg width="27" height="26" viewBox="0 0 27 26" fill="none" xmlns="http://www.w3.org/2000/svg">
<path d="M10.4373 0C15.9493 0 20.4373 4.488 20.4373 10C20.4373 12.395 19.5972 14.59 18.1873 16.313L26.1562 24.28L24.7173 25.72L16.7493 17.751C14.9697 19.2099 12.7384 20.005 10.4373 20C4.92525 20 0.43725 15.512 0.43725 10C0.43725 4.488 4.92525 0 10.4373 0ZM10.4373 2C6.00725 2 2.43725 5.57 2.43725 10C2.43725 14.43 6.00725 18 10.4373 18C14.8673 18 18.4373 14.43 18.4373 10C18.4373 5.57 14.8673 2 10.4373 2Z" fill="#333333"/>
</svg>
