<svg width="22" height="23" viewBox="0 0 22 23" fill="none" xmlns="http://www.w3.org/2000/svg">
<path d="M0 0.282227V22.2822H22V0.282227H0ZM2 2.28223H20V20.2822H2V2.28223ZM15 5.28223C14.7244 5.28249 14.4518 5.33972 14.1993 5.45033C13.9468 5.56094 13.72 5.72254 13.5329 5.92499C13.3459 6.12743 13.2027 6.36636 13.1124 6.62676C13.022 6.88717 12.9865 7.16344 13.008 7.43823L8.32 9.78223C7.95539 9.46067 7.48615 9.28293 7 9.28223C6.46957 9.28223 5.96086 9.49294 5.58579 9.86801C5.21071 10.2431 5 10.7518 5 11.2822C5 11.8127 5.21071 12.3214 5.58579 12.6964C5.96086 13.0715 6.46957 13.2822 7 13.2822C7.48615 13.2815 7.95539 13.1038 8.32 12.7822L13.008 15.1262C12.9865 15.401 13.022 15.6773 13.1124 15.9377C13.2027 16.1981 13.3459 16.437 13.5329 16.6395C13.72 16.8419 13.9468 17.0035 14.1993 17.1141C14.4518 17.2247 14.7244 17.282 15 17.2822C15.5304 17.2822 16.0391 17.0715 16.4142 16.6964C16.7893 16.3214 17 15.8127 17 15.2822C17 14.7518 16.7893 14.2431 16.4142 13.868C16.0391 13.4929 15.5304 13.2822 15 13.2822C14.5139 13.2829 14.0446 13.4607 13.68 13.7822L8.992 11.4382C9.00012 11.3344 9.00012 11.2301 8.992 11.1262L13.68 8.78223C14.0446 9.10378 14.5139 9.28153 15 9.28223C15.5304 9.28223 16.0391 9.07151 16.4142 8.69644C16.7893 8.32137 17 7.81266 17 7.28223C17 6.75179 16.7893 6.24309 16.4142 5.86801C16.0391 5.49294 15.5304 5.28223 15 5.28223Z" fill="#333333"/>
</svg>
