<svg width="23" height="25" viewBox="0 0 23 25" fill="none" xmlns="http://www.w3.org/2000/svg">
<path d="M11.3438 0.148438C9.09375 0.148438 7.57775 1.03544 6.21875 1.77344C4.85875 2.51144 3.62475 3.14844 1.34375 3.14844H0.34375V4.14844C0.34375 11.8674 2.95375 16.8904 5.59375 19.9294C8.23375 22.9694 10.9688 24.0864 10.9688 24.0864L11.3438 24.2114L11.7188 24.0864C11.7188 24.0864 14.4528 22.9924 17.0938 19.9614C19.7337 16.9284 22.3438 11.8934 22.3438 4.14844V3.14844H21.3438C19.0737 3.14844 17.8277 2.51144 16.4688 1.77344C15.1088 1.03544 13.5938 0.148438 11.3438 0.148438ZM11.3438 2.14844C13.0938 2.14844 14.0977 2.76144 15.4998 3.52344C16.9787 4.32981 18.6052 4.82945 20.2817 4.99244C20.0898 11.7574 17.8517 16.0584 15.5938 18.6484C13.5468 20.9964 11.8278 21.7774 11.3438 21.9924C10.8558 21.7734 9.14075 20.9724 7.09375 18.6174C4.83575 16.0194 2.59775 11.7274 2.40575 4.99244C4.08259 4.83067 5.70929 4.33096 7.18775 3.52344C8.58975 2.76144 9.59375 2.14844 11.3438 2.14844Z" fill="white"/>
</svg>
