<svg width="27" height="27" viewBox="0 0 27 27" fill="none" xmlns="http://www.w3.org/2000/svg">
<path d="M13.3438 0.679688C6.17575 0.679688 0.34375 6.51169 0.34375 13.6797C0.34375 20.8477 6.17575 26.6797 13.3438 26.6797C20.5117 26.6797 26.3438 20.8477 26.3438 13.6797C26.3438 6.51169 20.5117 0.679688 13.3438 0.679688ZM13.3438 2.67969C19.4088 2.67969 24.3438 7.61469 24.3438 13.6797C24.3438 19.7447 19.4088 24.6797 13.3438 24.6797C7.27875 24.6797 2.34375 19.7447 2.34375 13.6797C2.34375 7.61469 7.27875 2.67969 13.3438 2.67969ZM8.34375 9.67969C6.24975 9.67969 4.73375 10.8867 4.73375 10.8867L5.95375 12.4727C5.95375 12.4727 7.03575 11.6797 8.34475 11.6797C9.65375 11.6797 10.7347 12.4727 10.7347 12.4727L11.9548 10.8867C11.9517 10.8867 10.4368 9.67969 8.34375 9.67969ZM18.3438 9.67969C16.2498 9.67969 14.7337 10.8867 14.7337 10.8867L15.9538 12.4727C15.9538 12.4727 17.0357 11.6797 18.3447 11.6797C19.6537 11.6797 20.7348 12.4727 20.7348 12.4727L21.9548 10.8867C21.9517 10.8867 20.4368 9.67969 18.3438 9.67969ZM8.15375 16.6797L6.43375 17.6797C7.12823 18.8736 8.11611 19.8705 9.30375 20.5757C9.60075 20.7517 9.90775 20.9087 10.2268 21.0457C10.8757 21.3223 11.5588 21.5106 12.2577 21.6057C12.9784 21.7046 13.7091 21.7046 14.4298 21.6057C16.1647 21.3656 17.7718 20.5596 19.0018 19.3127C19.4865 18.8235 19.9072 18.2748 20.2537 17.6797L18.5338 16.6797C17.8698 17.8311 16.842 18.7292 15.6121 19.233C14.3821 19.7367 13.0196 19.8175 11.7388 19.4627C11.2352 19.3233 10.7524 19.1178 10.3027 18.8517C9.41191 18.3244 8.67209 17.5763 8.15475 16.6797H8.15375Z" fill="white"/>
</svg>
