<svg width="204" height="94" viewBox="0 0 204 94" fill="none" xmlns="http://www.w3.org/2000/svg">
<path d="M116.689 79.6491C114.346 79.6491 112.295 79.3433 110.534 78.7315C108.773 78.1347 107.289 77.3141 106.08 76.2697C104.872 75.2253 103.932 74.0541 103.26 72.756L106.528 70.6075C107.02 71.4729 107.677 72.3234 108.497 73.1589C109.333 73.9944 110.415 74.6882 111.743 75.2402C113.085 75.7923 114.734 76.0683 116.689 76.0683C119.732 76.0683 122.187 75.3074 124.052 73.7855C125.932 72.2637 126.872 69.8988 126.872 66.691V58.9475H126.513C126.051 59.9919 125.387 61.0363 124.522 62.0807C123.656 63.1102 122.522 63.9681 121.12 64.6544C119.732 65.3407 118.009 65.6839 115.95 65.6839C113.205 65.6839 110.765 65.005 108.632 63.6473C106.513 62.2896 104.842 60.35 103.619 57.8285C102.41 55.2921 101.806 52.2707 101.806 48.7645C101.806 45.2881 102.395 42.2295 103.574 39.5887C104.767 36.9478 106.431 34.8888 108.565 33.4117C110.698 31.9346 113.182 31.1961 116.017 31.1961C118.121 31.1961 119.867 31.5691 121.254 32.3151C122.642 33.0462 123.753 33.9563 124.589 35.0455C125.439 36.1347 126.103 37.194 126.581 38.2235H126.983V31.6661H130.878V66.9372C130.878 69.8466 130.258 72.2413 129.02 74.1212C127.782 76.0012 126.096 77.3887 123.962 78.2839C121.829 79.1941 119.404 79.6491 116.689 79.6491ZM116.42 62.0359C118.628 62.0359 120.516 61.5063 122.082 60.447C123.649 59.3727 124.85 57.8359 125.685 55.8366C126.521 53.8374 126.939 51.4576 126.939 48.6974C126.939 46.0118 126.528 43.632 125.708 41.5581C124.887 39.4693 123.694 37.8281 122.127 36.6345C120.575 35.4259 118.673 34.8217 116.42 34.8217C114.122 34.8217 112.183 35.4409 110.601 36.6792C109.02 37.9176 107.826 39.5887 107.02 41.6924C106.215 43.7812 105.812 46.1162 105.812 48.6974C105.812 51.3233 106.222 53.6434 107.043 55.6576C107.863 57.6569 109.064 59.2235 110.646 60.3574C112.227 61.4764 114.152 62.0359 116.42 62.0359ZM161.087 66.7582C158.118 66.7582 155.492 66.0047 153.21 64.4978C150.942 62.9908 149.166 60.9095 147.883 58.2537C146.6 55.583 145.958 52.502 145.958 49.0107C145.958 45.4896 146.6 42.3936 147.883 39.7229C149.166 37.0373 150.942 34.9485 153.21 33.4565C155.492 31.9496 158.118 31.1961 161.087 31.1961C164.057 31.1961 166.675 31.9496 168.943 33.4565C171.211 34.9634 172.986 37.0522 174.269 39.7229C175.567 42.3936 176.216 45.4896 176.216 49.0107C176.216 52.502 175.575 55.583 174.292 58.2537C173.009 60.9095 171.226 62.9908 168.943 64.4978C166.675 66.0047 164.057 66.7582 161.087 66.7582ZM161.087 63.1102C163.475 63.1102 165.496 62.4686 167.152 61.1855C168.809 59.9024 170.062 58.194 170.912 56.0604C171.778 53.9269 172.21 51.577 172.21 49.0107C172.21 46.4444 171.778 44.0871 170.912 41.9386C170.062 39.7901 168.809 38.0668 167.152 36.7688C165.496 35.4707 163.475 34.8217 161.087 34.8217C158.715 34.8217 156.693 35.4707 155.022 36.7688C153.366 38.0668 152.106 39.7901 151.24 41.9386C150.39 44.0871 149.964 46.4444 149.964 49.0107C149.964 51.577 150.39 53.9269 151.24 56.0604C152.106 58.194 153.366 59.9024 155.022 61.1855C156.679 62.4686 158.7 63.1102 161.087 63.1102ZM196.859 20.2074L196.568 52.9048H192.629L192.338 20.2074H196.859ZM194.598 66.3777C193.718 66.3777 192.957 66.0644 192.316 65.4377C191.689 64.7962 191.376 64.0352 191.376 63.155C191.376 62.2597 191.689 61.4988 192.316 60.8722C192.957 60.2455 193.718 59.9322 194.598 59.9322C195.479 59.9322 196.232 60.2455 196.859 60.8722C197.5 61.4988 197.821 62.2597 197.821 63.155C197.821 63.7368 197.672 64.274 197.373 64.7663C197.09 65.2587 196.702 65.6541 196.21 65.9525C195.732 66.236 195.195 66.3777 194.598 66.3777Z" fill="white"/>
<circle cx="46.6367" cy="46.6367" r="45.1936" stroke="white" stroke-width="2.88608"/>
<path d="M13.6499 66.042V20.2074H17.835V62.2821H39.678V66.042H13.6499ZM67.9352 66.7582C64.9661 66.7582 62.3402 66.0047 60.0574 64.4978C57.7895 62.9908 56.014 60.9095 54.7309 58.2537C53.4478 55.583 52.8062 52.502 52.8062 49.0107C52.8062 45.4896 53.4478 42.3936 54.7309 39.7229C56.014 37.0373 57.7895 34.9485 60.0574 33.4565C62.3402 31.9496 64.9661 31.1961 67.9352 31.1961C70.9043 31.1961 73.5228 31.9496 75.7906 33.4565C78.0585 34.9634 79.834 37.0522 81.1171 39.7229C82.4152 42.3936 83.0642 45.4896 83.0642 49.0107C83.0642 52.502 82.4226 55.583 81.1395 58.2537C79.8564 60.9095 78.0734 62.9908 75.7906 64.4978C73.5228 66.0047 70.9043 66.7582 67.9352 66.7582ZM67.9352 63.1102C70.3224 63.1102 72.3441 62.4686 74.0002 61.1855C75.6563 59.9024 76.9096 58.194 77.7601 56.0604C78.6254 53.9269 79.0581 51.577 79.0581 49.0107C79.0581 46.4444 78.6254 44.0871 77.7601 41.9386C76.9096 39.7901 75.6563 38.0668 74.0002 36.7688C72.3441 35.4707 70.3224 34.8217 67.9352 34.8217C65.5629 34.8217 63.5412 35.4707 61.8702 36.7688C60.214 38.0668 58.9533 39.7901 58.0879 41.9386C57.2375 44.0871 56.8123 46.4444 56.8123 49.0107C56.8123 51.577 57.2375 53.9269 58.0879 56.0604C58.9533 58.194 60.214 59.9024 61.8702 61.1855C63.5263 62.4686 65.548 63.1102 67.9352 63.1102Z" fill="white"/>
</svg>
