<svg width="283" height="130" viewBox="0 0 283 130" fill="none" xmlns="http://www.w3.org/2000/svg">
<path d="M161.726 110.847C158.479 110.847 155.636 110.423 153.196 109.575C150.756 108.748 148.698 107.611 147.023 106.163C145.348 104.716 144.045 103.092 143.115 101.293L147.643 98.3155C148.326 99.5148 149.236 100.694 150.373 101.852C151.531 103.01 153.03 103.971 154.871 104.736C156.732 105.501 159.017 105.884 161.726 105.884C165.944 105.884 169.346 104.829 171.931 102.72C174.536 100.611 175.839 97.3332 175.839 92.8873V82.1551H175.343C174.701 83.6026 173.781 85.0501 172.582 86.4976C171.383 87.9244 169.811 89.1135 167.867 90.0647C165.944 91.0159 163.556 91.4915 160.702 91.4915C156.897 91.4915 153.516 90.5506 150.559 88.6689C147.623 86.7871 145.307 84.0989 143.611 80.6042C141.936 77.0888 141.099 72.9014 141.099 68.0419C141.099 63.2237 141.915 58.9846 143.549 55.3245C145.203 51.6643 147.509 48.8107 150.466 46.7635C153.423 44.7163 156.866 43.6927 160.795 43.6927C163.711 43.6927 166.13 44.2097 168.053 45.2436C169.976 46.2568 171.517 47.5182 172.675 49.0278C173.854 50.5373 174.774 52.0055 175.436 53.4324H175.994V44.3441H181.391V93.2285C181.391 97.2609 180.533 100.58 178.817 103.185C177.1 105.791 174.764 107.714 171.806 108.955C168.849 110.216 165.489 110.847 161.726 110.847ZM161.353 86.4356C164.414 86.4356 167.03 85.7015 169.201 84.2333C171.372 82.7444 173.037 80.6145 174.195 77.8436C175.353 75.0726 175.932 71.7744 175.932 67.9488C175.932 64.2266 175.363 60.9284 174.226 58.054C173.089 55.159 171.434 52.8844 169.263 51.2301C167.112 49.5551 164.476 48.7176 161.353 48.7176C158.169 48.7176 155.481 49.5758 153.289 51.2921C151.097 53.0084 149.442 55.3245 148.326 58.2402C147.209 61.1352 146.651 64.3714 146.651 67.9488C146.651 71.5883 147.219 74.8038 148.357 77.5954C149.494 80.3664 151.159 82.5376 153.351 84.1092C155.543 85.6601 158.21 86.4356 161.353 86.4356ZM223.261 92.9804C219.146 92.9804 215.506 91.9361 212.342 89.8475C209.199 87.759 206.738 84.8743 204.96 81.1935C203.182 77.492 202.293 73.2219 202.293 68.3831C202.293 63.5029 203.182 59.2121 204.96 55.5106C206.738 51.7884 209.199 48.8934 212.342 46.8255C215.506 44.737 219.146 43.6927 223.261 43.6927C227.376 43.6927 231.005 44.737 234.148 46.8255C237.291 48.9141 239.752 51.8091 241.53 55.5106C243.329 59.2121 244.229 63.5029 244.229 68.3831C244.229 73.2219 243.34 77.492 241.561 81.1935C239.783 84.8743 237.312 87.759 234.148 89.8475C231.005 91.9361 227.376 92.9804 223.261 92.9804ZM223.261 87.9244C226.569 87.9244 229.371 87.0352 231.667 85.2569C233.962 83.4785 235.699 81.1108 236.878 78.1537C238.077 75.1967 238.677 71.9398 238.677 68.3831C238.677 64.8263 238.077 61.5591 236.878 58.5814C235.699 55.6036 233.962 53.2152 231.667 51.4162C229.371 49.6171 226.569 48.7176 223.261 48.7176C219.973 48.7176 217.171 49.6171 214.855 51.4162C212.56 53.2152 210.812 55.6036 209.613 58.5814C208.434 61.5591 207.845 64.8263 207.845 68.3831C207.845 71.9398 208.434 75.1967 209.613 78.1537C210.812 81.1108 212.56 83.4785 214.855 85.2569C217.15 87.0352 219.952 87.9244 223.261 87.9244ZM272.838 28.4628L272.435 73.7802H266.976L266.573 28.4628H272.838ZM269.706 92.4531C268.486 92.4531 267.431 92.0188 266.542 91.1503C265.673 90.2611 265.239 89.2065 265.239 87.9865C265.239 86.7457 265.673 85.6911 266.542 84.8226C267.431 83.9541 268.486 83.5199 269.706 83.5199C270.926 83.5199 271.97 83.9541 272.838 84.8226C273.728 85.6911 274.172 86.7457 274.172 87.9865C274.172 88.7929 273.965 89.5374 273.552 90.2198C273.159 90.9022 272.621 91.4501 271.939 91.8637C271.277 92.2566 270.533 92.4531 269.706 92.4531Z" fill="#5B89C5"/>
<circle cx="64.6367" cy="64.6367" r="62.6367" stroke="white" stroke-width="4"/>
<path d="M18.9174 91.9878V28.4628H24.7178V86.7768H54.9914V91.9878H18.9174ZM94.1548 92.9804C90.0397 92.9804 86.4002 91.9361 83.2364 89.8475C80.0932 87.759 77.6325 84.8743 75.8541 81.1935C74.0757 77.492 73.1866 73.2219 73.1866 68.3831C73.1866 63.5029 74.0757 59.2121 75.8541 55.5106C77.6325 51.7884 80.0932 48.8934 83.2364 46.8255C86.4002 44.737 90.0397 43.6927 94.1548 43.6927C98.2698 43.6927 101.899 44.737 105.042 46.8255C108.185 48.9141 110.646 51.8091 112.424 55.5106C114.223 59.2121 115.123 63.5029 115.123 68.3831C115.123 73.2219 114.234 77.492 112.455 81.1935C110.677 84.8743 108.206 87.759 105.042 89.8475C101.899 91.9361 98.2698 92.9804 94.1548 92.9804ZM94.1548 87.9244C97.4634 87.9244 100.265 87.0352 102.561 85.2569C104.856 83.4785 106.593 81.1108 107.772 78.1537C108.971 75.1967 109.571 71.9398 109.571 68.3831C109.571 64.8263 108.971 61.5591 107.772 58.5814C106.593 55.6036 104.856 53.2152 102.561 51.4162C100.265 49.6171 97.4634 48.7176 94.1548 48.7176C90.8668 48.7176 88.0649 49.6171 85.7489 51.4162C83.4535 53.2152 81.7062 55.6036 80.5068 58.5814C79.3281 61.5591 78.7388 64.8263 78.7388 68.3831C78.7388 71.9398 79.3281 75.1967 80.5068 78.1537C81.7062 81.1108 83.4535 83.4785 85.7489 85.2569C88.0442 87.0352 90.8462 87.9244 94.1548 87.9244Z" fill="white"/>
</svg>
