<svg width="213" height="99" viewBox="0 0 213 99" fill="none" xmlns="http://www.w3.org/2000/svg">
<path d="M122.041 84.3647C119.591 84.3647 117.446 84.0448 115.604 83.405C113.763 82.7809 112.21 81.9226 110.946 80.8303C109.682 79.738 108.699 78.513 107.997 77.1554L111.415 74.9083C111.93 75.8134 112.616 76.7029 113.474 77.5767C114.348 78.4506 115.48 79.1762 116.868 79.7536C118.273 80.3309 119.997 80.6196 122.041 80.6196C125.225 80.6196 127.792 79.8238 129.742 78.2321C131.708 76.6404 132.692 74.1671 132.692 70.8121V62.7133H132.317C131.833 63.8056 131.139 64.8979 130.234 65.9903C129.329 67.067 128.143 67.9643 126.676 68.6821C125.225 69.3999 123.422 69.7588 121.269 69.7588C118.398 69.7588 115.846 69.0488 113.615 67.6288C111.399 66.2087 109.651 64.1801 108.372 61.5429C107.108 58.8902 106.476 55.7302 106.476 52.0631C106.476 48.4272 107.092 45.2283 108.325 42.4663C109.573 39.7042 111.313 37.5508 113.545 36.0059C115.776 34.4611 118.374 33.6887 121.339 33.6887C123.539 33.6887 125.365 34.0788 126.816 34.859C128.268 35.6236 129.43 36.5755 130.304 37.7147C131.193 38.8538 131.888 39.9617 132.387 41.0384H132.809V34.1802H136.881V71.0696C136.881 74.1125 136.234 76.617 134.939 78.5832C133.643 80.5494 131.88 82.0006 129.649 82.9369C127.417 83.8888 124.881 84.3647 122.041 84.3647ZM121.76 65.9435C124.07 65.9435 126.044 65.3895 127.682 64.2816C129.321 63.158 130.577 61.5507 131.451 59.4597C132.325 57.3687 132.762 54.8798 132.762 51.9929C132.762 49.1841 132.333 46.6951 131.474 44.5261C130.616 42.3414 129.368 40.6249 127.729 39.3765C126.106 38.1126 124.117 37.4806 121.76 37.4806C119.357 37.4806 117.329 38.1282 115.675 39.4234C114.021 40.7185 112.772 42.4663 111.93 44.6665C111.087 46.8512 110.666 49.2933 110.666 51.9929C110.666 54.7393 111.095 57.1658 111.953 59.2725C112.811 61.3635 114.067 63.002 115.721 64.1879C117.376 65.3583 119.389 65.9435 121.76 65.9435ZM168.477 70.8823C165.372 70.8823 162.626 70.0943 160.238 68.5182C157.866 66.9422 156.009 64.7653 154.667 61.9877C153.325 59.1944 152.654 55.9721 152.654 52.3206C152.654 48.6379 153.325 45.3999 154.667 42.6067C156.009 39.7979 157.866 37.6132 160.238 36.0528C162.626 34.4767 165.372 33.6887 168.477 33.6887C171.583 33.6887 174.321 34.4767 176.693 36.0528C179.065 37.6288 180.922 39.8135 182.264 42.6067C183.622 45.3999 184.3 48.6379 184.3 52.3206C184.3 55.9721 183.629 59.1944 182.287 61.9877C180.945 64.7653 179.081 66.9422 176.693 68.5182C174.321 70.0943 171.583 70.8823 168.477 70.8823ZM168.477 67.067C170.974 67.067 173.088 66.396 174.821 65.054C176.553 63.712 177.863 61.9253 178.753 59.6938C179.658 57.4623 180.111 55.0046 180.111 52.3206C180.111 49.6366 179.658 47.1711 178.753 44.924C177.863 42.6769 176.553 40.8746 174.821 39.517C173.088 38.1594 170.974 37.4806 168.477 37.4806C165.996 37.4806 163.882 38.1594 162.134 39.517C160.402 40.8746 159.083 42.6769 158.178 44.924C157.289 47.1711 156.844 49.6366 156.844 52.3206C156.844 55.0046 157.289 57.4623 158.178 59.6938C159.083 61.9253 160.402 63.712 162.134 65.054C163.866 66.396 165.98 67.067 168.477 67.067ZM205.89 22.1958L205.585 56.3934H201.466L201.162 22.1958H205.89ZM203.526 70.4844C202.605 70.4844 201.809 70.1567 201.138 69.5013C200.483 68.8303 200.155 68.0345 200.155 67.1138C200.155 66.1775 200.483 65.3817 201.138 64.7263C201.809 64.0709 202.605 63.7432 203.526 63.7432C204.446 63.7432 205.234 64.0709 205.89 64.7263C206.561 65.3817 206.896 66.1775 206.896 67.1138C206.896 67.7224 206.74 68.2842 206.428 68.7991C206.132 69.3141 205.726 69.7276 205.211 70.0397C204.712 70.3362 204.15 70.4844 203.526 70.4844Z" fill="#5B89C5"/>
<circle cx="48.7764" cy="49.6367" r="48.7764" fill="#5B89C5"/>
<path d="M14.2749 70.1333V22.1958H18.652V66.2009H41.4972V70.1333H14.2749ZM71.0508 70.8823C67.9455 70.8823 65.1991 70.0943 62.8116 68.5182C60.4397 66.9422 58.5827 64.7653 57.2407 61.9877C55.8987 59.1944 55.2277 55.9721 55.2277 52.3206C55.2277 48.6379 55.8987 45.3999 57.2407 42.6067C58.5827 39.7979 60.4397 37.6132 62.8116 36.0528C65.1991 34.4767 67.9455 33.6887 71.0508 33.6887C74.1562 33.6887 76.8948 34.4767 79.2667 36.0528C81.6386 37.6288 83.4955 39.8135 84.8375 42.6067C86.1951 45.3999 86.8739 48.6379 86.8739 52.3206C86.8739 55.9721 86.2029 59.1944 84.8609 61.9877C83.5189 64.7653 81.6542 66.9422 79.2667 68.5182C76.8948 70.0943 74.1562 70.8823 71.0508 70.8823ZM71.0508 67.067C73.5476 67.067 75.662 66.396 77.3941 65.054C79.1262 63.712 80.437 61.9253 81.3265 59.6938C82.2316 57.4623 82.6841 55.0046 82.6841 52.3206C82.6841 49.6366 82.2316 47.1711 81.3265 44.924C80.437 42.6769 79.1262 40.8746 77.3941 39.517C75.662 38.1594 73.5476 37.4806 71.0508 37.4806C68.5697 37.4806 66.4553 38.1594 64.7075 39.517C62.9754 40.8746 61.6568 42.6769 60.7518 44.924C59.8623 47.1711 59.4176 49.6366 59.4176 52.3206C59.4176 55.0046 59.8623 57.4623 60.7518 59.6938C61.6568 61.9253 62.9754 63.712 64.7075 65.054C66.4397 66.396 68.5541 67.067 71.0508 67.067Z" fill="white"/>
</svg>
