<svg width="77" height="48" viewBox="0 0 77 48" fill="none" xmlns="http://www.w3.org/2000/svg">
<circle cx="24" cy="24" r="24" fill="white"/>
<path d="M51.4219 37.3977C50.4098 37.3977 49.5398 37.2675 48.8118 37.0071C48.0838 36.7526 47.4772 36.4152 46.9918 35.995C46.5124 35.5807 46.1307 35.1368 45.8466 34.6634L47.5156 33.4915C47.705 33.7401 47.9447 34.0241 48.2347 34.3438C48.5247 34.6693 48.9213 34.9504 49.4244 35.1871C49.9334 35.4298 50.5992 35.5511 51.4219 35.5511C52.5227 35.5511 53.4312 35.2848 54.1474 34.7521C54.8635 34.2195 55.2216 33.3849 55.2216 32.2486V29.4787H55.044C54.8902 29.7273 54.6712 30.035 54.3871 30.402C54.1089 30.763 53.7064 31.0856 53.1797 31.3697C52.6589 31.6478 51.9545 31.7869 51.0668 31.7869C49.9659 31.7869 48.9775 31.5265 48.1016 31.0057C47.2315 30.4848 46.542 29.7273 46.033 28.733C45.5299 27.7386 45.2784 26.5312 45.2784 25.1108C45.2784 23.714 45.524 22.4978 46.0153 21.462C46.5065 20.4203 47.1901 19.6154 48.0661 19.0472C48.942 18.4731 49.9541 18.1861 51.1023 18.1861C51.9901 18.1861 52.6944 18.334 53.2152 18.63C53.742 18.92 54.1444 19.2514 54.4226 19.6243C54.7067 19.9912 54.9257 20.2931 55.0795 20.5298H55.2926V18.3636H57.3168V32.3906C57.3168 33.5625 57.0504 34.5154 56.5178 35.2493C55.991 35.9891 55.2808 36.5307 54.3871 36.8739C53.4993 37.2231 52.5109 37.3977 51.4219 37.3977ZM51.3509 29.9048C52.1913 29.9048 52.9015 29.7125 53.4815 29.3278C54.0616 28.9431 54.5025 28.3897 54.8043 27.6676C55.1062 26.9455 55.2571 26.0814 55.2571 25.0753C55.2571 24.0928 55.1091 23.2257 54.8132 22.4741C54.5173 21.7224 54.0793 21.1335 53.4993 20.7074C52.9193 20.2812 52.2031 20.0682 51.3509 20.0682C50.4631 20.0682 49.7232 20.2931 49.1314 20.7429C48.5455 21.1927 48.1045 21.7964 47.8086 22.554C47.5186 23.3116 47.3736 24.152 47.3736 25.0753C47.3736 26.0223 47.5215 26.8597 47.8175 27.5877C48.1193 28.3098 48.5632 28.878 49.1491 29.2923C49.741 29.7006 50.4749 29.9048 51.3509 29.9048ZM69.1918 32.2841C67.9607 32.2841 66.8806 31.9911 65.9513 31.4052C65.0281 30.8192 64.306 29.9995 63.7852 28.946C63.2702 27.8925 63.0128 26.6615 63.0128 25.2528C63.0128 23.8324 63.2702 22.5924 63.7852 21.533C64.306 20.4736 65.0281 19.6509 65.9513 19.065C66.8806 18.479 67.9607 18.1861 69.1918 18.1861C70.4228 18.1861 71.5 18.479 72.4233 19.065C73.3525 19.6509 74.0746 20.4736 74.5895 21.533C75.1103 22.5924 75.3707 23.8324 75.3707 25.2528C75.3707 26.6615 75.1103 27.8925 74.5895 28.946C74.0746 29.9995 73.3525 30.8192 72.4233 31.4052C71.5 31.9911 70.4228 32.2841 69.1918 32.2841ZM69.1918 30.402C70.1269 30.402 70.8963 30.1623 71.5 29.6829C72.1037 29.2035 72.5505 28.5732 72.8406 27.7919C73.1306 27.0107 73.2756 26.1643 73.2756 25.2528C73.2756 24.3414 73.1306 23.4921 72.8406 22.7049C72.5505 21.9177 72.1037 21.2815 71.5 20.7962C70.8963 20.3108 70.1269 20.0682 69.1918 20.0682C68.2566 20.0682 67.4872 20.3108 66.8835 20.7962C66.2798 21.2815 65.833 21.9177 65.543 22.7049C65.253 23.4921 65.108 24.3414 65.108 25.2528C65.108 26.1643 65.253 27.0107 65.543 27.7919C65.833 28.5732 66.2798 29.2035 66.8835 29.6829C67.4872 30.1623 68.2566 30.402 69.1918 30.402Z" fill="#333333"/>
<circle cx="23.5" cy="24.5" r="18.5" fill="#5B89C5"/>
<path d="M10.2017 32V13.8182H12.4034V30.0469H20.8551V32H10.2017ZM32.0199 32.2841C30.7888 32.2841 29.7087 31.9911 28.7795 31.4052C27.8562 30.8192 27.1341 29.9995 26.6133 28.946C26.0984 27.8925 25.8409 26.6615 25.8409 25.2528C25.8409 23.8324 26.0984 22.5924 26.6133 21.533C27.1341 20.4736 27.8562 19.6509 28.7795 19.065C29.7087 18.479 30.7888 18.1861 32.0199 18.1861C33.2509 18.1861 34.3281 18.479 35.2514 19.065C36.1806 19.6509 36.9027 20.4736 37.4176 21.533C37.9384 22.5924 38.1989 23.8324 38.1989 25.2528C38.1989 26.6615 37.9384 27.8925 37.4176 28.946C36.9027 29.9995 36.1806 30.8192 35.2514 31.4052C34.3281 31.9911 33.2509 32.2841 32.0199 32.2841ZM32.0199 30.402C32.955 30.402 33.7244 30.1623 34.3281 29.6829C34.9318 29.2035 35.3787 28.5732 35.6687 27.7919C35.9587 27.0107 36.1037 26.1643 36.1037 25.2528C36.1037 24.3414 35.9587 23.4921 35.6687 22.7049C35.3787 21.9177 34.9318 21.2815 34.3281 20.7962C33.7244 20.3108 32.955 20.0682 32.0199 20.0682C31.0848 20.0682 30.3153 20.3108 29.7116 20.7962C29.108 21.2815 28.6611 21.9177 28.3711 22.7049C28.0811 23.4921 27.9361 24.3414 27.9361 25.2528C27.9361 26.1643 28.0811 27.0107 28.3711 27.7919C28.6611 28.5732 29.108 29.2035 29.7116 29.6829C30.3153 30.1623 31.0848 30.402 32.0199 30.402Z" fill="white"/>
</svg>
