<svg width="72" height="37" viewBox="0 0 72 37" fill="none" xmlns="http://www.w3.org/2000/svg">
<path d="M46.4219 31.3977C45.4098 31.3977 44.5398 31.2675 43.8118 31.0071C43.0838 30.7526 42.4772 30.4152 41.9918 29.995C41.5124 29.5807 41.1307 29.1368 40.8466 28.6634L42.5156 27.4915C42.705 27.7401 42.9447 28.0241 43.2347 28.3438C43.5247 28.6693 43.9213 28.9504 44.4244 29.1871C44.9334 29.4298 45.5992 29.5511 46.4219 29.5511C47.5227 29.5511 48.4312 29.2848 49.1474 28.7521C49.8635 28.2195 50.2216 27.3849 50.2216 26.2486V23.4787H50.044C49.8902 23.7273 49.6712 24.035 49.3871 24.402C49.1089 24.763 48.7064 25.0856 48.1797 25.3697C47.6589 25.6478 46.9545 25.7869 46.0668 25.7869C44.9659 25.7869 43.9775 25.5265 43.1016 25.0057C42.2315 24.4848 41.542 23.7273 41.033 22.733C40.5299 21.7386 40.2784 20.5312 40.2784 19.1108C40.2784 17.714 40.524 16.4978 41.0153 15.462C41.5065 14.4203 42.1901 13.6154 43.0661 13.0472C43.942 12.4731 44.9541 12.1861 46.1023 12.1861C46.9901 12.1861 47.6944 12.334 48.2152 12.63C48.742 12.92 49.1444 13.2514 49.4226 13.6243C49.7067 13.9912 49.9257 14.2931 50.0795 14.5298H50.2926V12.3636H52.3168V26.3906C52.3168 27.5625 52.0504 28.5154 51.5178 29.2493C50.991 29.9891 50.2808 30.5307 49.3871 30.8739C48.4993 31.2231 47.5109 31.3977 46.4219 31.3977ZM46.3509 23.9048C47.1913 23.9048 47.9015 23.7125 48.4815 23.3278C49.0616 22.9431 49.5025 22.3897 49.8043 21.6676C50.1062 20.9455 50.2571 20.0814 50.2571 19.0753C50.2571 18.0928 50.1091 17.2257 49.8132 16.4741C49.5173 15.7224 49.0793 15.1335 48.4993 14.7074C47.9193 14.2812 47.2031 14.0682 46.3509 14.0682C45.4631 14.0682 44.7232 14.2931 44.1314 14.7429C43.5455 15.1927 43.1045 15.7964 42.8086 16.554C42.5186 17.3116 42.3736 18.152 42.3736 19.0753C42.3736 20.0223 42.5215 20.8597 42.8175 21.5877C43.1193 22.3098 43.5632 22.878 44.1491 23.2923C44.741 23.7006 45.4749 23.9048 46.3509 23.9048ZM64.1918 26.2841C62.9607 26.2841 61.8806 25.9911 60.9513 25.4052C60.0281 24.8192 59.306 23.9995 58.7852 22.946C58.2702 21.8925 58.0128 20.6615 58.0128 19.2528C58.0128 17.8324 58.2702 16.5924 58.7852 15.533C59.306 14.4736 60.0281 13.6509 60.9513 13.065C61.8806 12.479 62.9607 12.1861 64.1918 12.1861C65.4228 12.1861 66.5 12.479 67.4233 13.065C68.3525 13.6509 69.0746 14.4736 69.5895 15.533C70.1103 16.5924 70.3707 17.8324 70.3707 19.2528C70.3707 20.6615 70.1103 21.8925 69.5895 22.946C69.0746 23.9995 68.3525 24.8192 67.4233 25.4052C66.5 25.9911 65.4228 26.2841 64.1918 26.2841ZM64.1918 24.402C65.1269 24.402 65.8963 24.1623 66.5 23.6829C67.1037 23.2035 67.5505 22.5732 67.8406 21.7919C68.1306 21.0107 68.2756 20.1643 68.2756 19.2528C68.2756 18.3414 68.1306 17.4921 67.8406 16.7049C67.5505 15.9177 67.1037 15.2815 66.5 14.7962C65.8963 14.3108 65.1269 14.0682 64.1918 14.0682C63.2566 14.0682 62.4872 14.3108 61.8835 14.7962C61.2798 15.2815 60.833 15.9177 60.543 16.7049C60.253 17.4921 60.108 18.3414 60.108 19.2528C60.108 20.1643 60.253 21.0107 60.543 21.7919C60.833 22.5732 61.2798 23.2035 61.8835 23.6829C62.4872 24.1623 63.2566 24.402 64.1918 24.402Z" fill="#333333"/>
<circle cx="18.5" cy="18.5" r="18.5" fill="#5B89C5"/>
<path d="M5.2017 26V7.81818H7.40341V24.0469H15.8551V26H5.2017ZM27.0199 26.2841C25.7888 26.2841 24.7087 25.9911 23.7795 25.4052C22.8562 24.8192 22.1341 23.9995 21.6133 22.946C21.0984 21.8925 20.8409 20.6615 20.8409 19.2528C20.8409 17.8324 21.0984 16.5924 21.6133 15.533C22.1341 14.4736 22.8562 13.6509 23.7795 13.065C24.7087 12.479 25.7888 12.1861 27.0199 12.1861C28.2509 12.1861 29.3281 12.479 30.2514 13.065C31.1806 13.6509 31.9027 14.4736 32.4176 15.533C32.9384 16.5924 33.1989 17.8324 33.1989 19.2528C33.1989 20.6615 32.9384 21.8925 32.4176 22.946C31.9027 23.9995 31.1806 24.8192 30.2514 25.4052C29.3281 25.9911 28.2509 26.2841 27.0199 26.2841ZM27.0199 24.402C27.955 24.402 28.7244 24.1623 29.3281 23.6829C29.9318 23.2035 30.3787 22.5732 30.6687 21.7919C30.9587 21.0107 31.1037 20.1643 31.1037 19.2528C31.1037 18.3414 30.9587 17.4921 30.6687 16.7049C30.3787 15.9177 29.9318 15.2815 29.3281 14.7962C28.7244 14.3108 27.955 14.0682 27.0199 14.0682C26.0848 14.0682 25.3153 14.3108 24.7116 14.7962C24.108 15.2815 23.6611 15.9177 23.3711 16.7049C23.0811 17.4921 22.9361 18.3414 22.9361 19.2528C22.9361 20.1643 23.0811 21.0107 23.3711 21.7919C23.6611 22.5732 24.108 23.2035 24.7116 23.6829C25.3153 24.1623 26.0848 24.402 27.0199 24.402Z" fill="white"/>
</svg>
